
<svg class="Pfad_428" viewBox="3 3 30 30">
        <path fill="rgba(185,185,185,1)" id="Pfad_428" d="M 2.999999761581421 6.333333492279053 L 2.999999761581421 29.66666603088379 C 2.999999761581421 31.49999809265137 4.483332633972168 33 6.333333492279053 33 L 29.66666603088379 33 C 31.49999809265137 33 33 31.49999809265137 33 29.66666603088379 L 33 6.333333492279053 C 33 4.5 31.49999809265137 2.999999761581421 29.66666603088379 2.999999761581421 L 6.333333492279053 2.999999761581421 C 4.483332633972168 2.999999761581421 2.999999761581421 4.5 2.999999761581421 6.333333492279053 Z M 22.99999809265137 12.99999809265137 C 22.99999809265137 15.7666654586792 20.76666641235352 18 18 18 C 15.23333168029785 18 12.99999809265137 15.7666654586792 12.99999809265137 12.99999809265137 C 12.99999809265137 10.23333263397217 15.23333168029785 8 18 8 C 20.76666641235352 8 22.99999809265137 10.23333263397217 22.99999809265137 12.99999809265137 Z M 8 26.33333206176758 C 8 22.99999809265137 14.66666603088379 21.16666603088379 18 21.16666603088379 C 21.33333396911621 21.16666603088379 27.99999809265137 22.99999809265137 27.99999809265137 26.33333206176758 L 27.99999809265137 27.99999809265137 L 8 27.99999809265137 L 8 26.33333206176758 Z">
        </path>
</svg>

